<svg width="41" height="41" viewBox="0 0 41 41" fill="none" xmlns="http://www.w3.org/2000/svg">
<g clip-path="url(#clip0_256_957)">
<path d="M40.7472 21.0508C40.7472 9.93578 31.7922 0.925781 20.7472 0.925781C9.69719 0.928281 0.742188 9.93578 0.742188 21.0533C0.742188 31.0958 8.05719 39.4208 17.6172 40.9308V26.8683H12.5422V21.0533H17.6222V16.6158C17.6222 11.5733 20.6097 8.78828 25.1772 8.78828C27.3672 8.78828 29.6547 9.18078 29.6547 9.18078V14.1308H27.1322C24.6497 14.1308 23.8747 15.6833 23.8747 17.2758V21.0508H29.4197L28.5347 26.8658H23.8722V40.9283C33.4322 39.4183 40.7472 31.0933 40.7472 21.0508Z" fill="white"/>
</g>
<defs>
<clipPath id="clip0_256_957">
<rect width="40" height="40" fill="white" transform="translate(0.75 0.927734)"/>
</clipPath>
</defs>
</svg>
