<svg width="41" height="41" viewBox="0 0 41 41" fill="none" xmlns="http://www.w3.org/2000/svg">
<g clip-path="url(#clip0_256_959)">
<path d="M20.0781 0.927734C14.6506 0.927734 13.9681 0.952734 11.8356 1.04773C9.70312 1.14773 8.25062 1.48273 6.97813 1.97773C5.64336 2.47978 4.43435 3.2673 3.43563 4.28523C2.41832 5.28447 1.63089 6.49333 1.12812 7.82773C0.633125 9.09773 0.295625 10.5527 0.198125 12.6777C0.103125 14.8152 0.078125 15.4952 0.078125 20.9302C0.078125 26.3602 0.103125 27.0402 0.198125 29.1727C0.298125 31.3027 0.633125 32.7552 1.12812 34.0277C1.64062 35.3427 2.32313 36.4577 3.43563 37.5702C4.54563 38.6827 5.66062 39.3677 6.97563 39.8777C8.25063 40.3727 9.70063 40.7102 11.8306 40.8077C13.9656 40.9027 14.6456 40.9277 20.0781 40.9277C25.5106 40.9277 26.1881 40.9027 28.3231 40.8077C30.4506 40.7077 31.9081 40.3727 33.1806 39.8777C34.5145 39.3754 35.7227 38.5879 36.7206 37.5702C37.8331 36.4577 38.5156 35.3427 39.0281 34.0277C39.5206 32.7552 39.8581 31.3027 39.9581 29.1727C40.0531 27.0402 40.0781 26.3602 40.0781 20.9277C40.0781 15.4952 40.0531 14.8152 39.9581 12.6802C39.8581 10.5527 39.5206 9.09773 39.0281 7.82773C38.5254 6.4933 37.738 5.28442 36.7206 4.28523C35.7222 3.26692 34.5131 2.47935 33.1781 1.97773C31.9031 1.48273 30.4481 1.14523 28.3206 1.04773C26.1856 0.952734 25.5081 0.927734 20.0731 0.927734H20.0806H20.0781ZM18.2856 4.53273H20.0806C25.4206 4.53273 26.0531 4.55023 28.1606 4.64773C30.1106 4.73523 31.1706 5.06273 31.8756 5.33523C32.8081 5.69773 33.4756 6.13273 34.1756 6.83273C34.8756 7.53273 35.3081 8.19773 35.6706 9.13273C35.9456 9.83523 36.2706 10.8952 36.3581 12.8452C36.4556 14.9527 36.4756 15.5852 36.4756 20.9227C36.4756 26.2602 36.4556 26.8952 36.3581 29.0027C36.2706 30.9527 35.9431 32.0102 35.6706 32.7152C35.35 33.5836 34.8382 34.3688 34.1731 35.0127C33.4731 35.7127 32.8081 36.1452 31.8731 36.5077C31.1731 36.7827 30.1131 37.1077 28.1606 37.1977C26.0531 37.2927 25.4206 37.3152 20.0806 37.3152C14.7406 37.3152 14.1056 37.2927 11.9981 37.1977C10.0481 37.1077 8.99063 36.7827 8.28563 36.5077C7.41687 36.1875 6.63094 35.6767 5.98562 35.0127C5.32 34.3678 4.80743 33.5819 4.48563 32.7127C4.21313 32.0102 3.88563 30.9502 3.79813 29.0002C3.70312 26.8927 3.68313 26.2602 3.68313 20.9177C3.68313 15.5777 3.70312 14.9477 3.79813 12.8402C3.88813 10.8902 4.21313 9.83023 4.48813 9.12523C4.85063 8.19273 5.28562 7.52523 5.98562 6.82523C6.68562 6.12523 7.35063 5.69273 8.28563 5.33023C8.99063 5.05523 10.0481 4.73023 11.9981 4.64023C13.8431 4.55523 14.5581 4.53023 18.2856 4.52773V4.53273ZM30.7556 7.85273C30.4405 7.85273 30.1284 7.91481 29.8372 8.03542C29.546 8.15603 29.2814 8.33282 29.0586 8.55568C28.8357 8.77854 28.6589 9.04311 28.5383 9.33429C28.4177 9.62548 28.3556 9.93756 28.3556 10.2527C28.3556 10.5679 28.4177 10.88 28.5383 11.1712C28.6589 11.4624 28.8357 11.7269 29.0586 11.9498C29.2814 12.1727 29.546 12.3494 29.8372 12.47C30.1284 12.5907 30.4405 12.6527 30.7556 12.6527C31.3921 12.6527 32.0026 12.3999 32.4527 11.9498C32.9028 11.4997 33.1556 10.8893 33.1556 10.2527C33.1556 9.61621 32.9028 9.00576 32.4527 8.55568C32.0026 8.10559 31.3921 7.85273 30.7556 7.85273ZM20.0806 10.6577C18.7183 10.6365 17.3654 10.8864 16.1006 11.3931C14.8358 11.8997 13.6844 12.6529 12.7135 13.6088C11.7426 14.5647 10.9715 15.7042 10.4452 16.9609C9.91892 18.2176 9.64788 19.5665 9.64788 20.929C9.64788 22.2915 9.91892 23.6404 10.4452 24.8971C10.9715 26.1538 11.7426 27.2933 12.7135 28.2492C13.6844 29.2051 14.8358 29.9582 16.1006 30.4649C17.3654 30.9715 18.7183 31.2215 20.0806 31.2002C22.777 31.1582 25.3487 30.0575 27.2406 28.1359C29.1325 26.2142 30.1929 23.6257 30.1929 20.929C30.1929 18.2323 29.1325 15.6438 27.2406 13.7221C25.3487 11.8005 22.777 10.6998 20.0806 10.6577ZM20.0806 14.2602C21.849 14.2602 23.5449 14.9627 24.7953 16.2131C26.0457 17.4635 26.7481 19.1594 26.7481 20.9277C26.7481 22.6961 26.0457 24.392 24.7953 25.6424C23.5449 26.8928 21.849 27.5952 20.0806 27.5952C18.3123 27.5952 16.6164 26.8928 15.366 25.6424C14.1156 24.392 13.4131 22.6961 13.4131 20.9277C13.4131 19.1594 14.1156 17.4635 15.366 16.2131C16.6164 14.9627 18.3123 14.2602 20.0806 14.2602Z" fill="white"/>
</g>
<defs>
<clipPath id="clip0_256_959">
<rect width="40" height="40" fill="white" transform="translate(0.078125 0.927734)"/>
</clipPath>
</defs>
</svg>
