<svg width="41" height="41" viewBox="0 0 41 41" fill="none" xmlns="http://www.w3.org/2000/svg">
<g clip-path="url(#clip0_256_955)">
<path d="M0.414062 3.79273C0.414062 2.21023 1.72906 0.927734 3.35156 0.927734H37.4766C39.0991 0.927734 40.4141 2.21023 40.4141 3.79273V38.0627C40.4141 39.6452 39.0991 40.9277 37.4766 40.9277H3.35156C1.72906 40.9277 0.414062 39.6452 0.414062 38.0627V3.79273ZM12.7716 34.4127V16.3502H6.76906V34.4127H12.7716ZM9.77156 13.8827C11.8641 13.8827 13.1666 12.4977 13.1666 10.7627C13.1291 8.99023 11.8666 7.64273 9.81156 7.64273C7.75656 7.64273 6.41406 8.99273 6.41406 10.7627C6.41406 12.4977 7.71656 13.8827 9.73156 13.8827H9.77156ZM22.0416 34.4127V24.3252C22.0416 23.7852 22.0816 23.2452 22.2416 22.8602C22.6741 21.7827 23.6616 20.6652 25.3216 20.6652C27.4941 20.6652 28.3616 22.3202 28.3616 24.7502V34.4127H34.3641V24.0527C34.3641 18.5027 31.4041 15.9227 27.4541 15.9227C24.2691 15.9227 22.8416 17.6727 22.0416 18.9052V18.9677H22.0016C22.0148 18.9469 22.0282 18.926 22.0416 18.9052V16.3502H16.0416C16.1166 18.0452 16.0416 34.4127 16.0416 34.4127H22.0416Z" fill="white"/>
</g>
<defs>
<clipPath id="clip0_256_955">
<rect width="40" height="40" fill="white" transform="translate(0.414062 0.927734)"/>
</clipPath>
</defs>
</svg>
