<svg width="41" height="41" viewBox="0 0 41 41" fill="none" xmlns="http://www.w3.org/2000/svg">
<g clip-path="url(#clip0_256_961)">
<path d="M40.4141 20.9277C40.4141 26.2321 38.3069 31.3191 34.5562 35.0699C30.8055 38.8206 25.7184 40.9277 20.4141 40.9277C15.1097 40.9277 10.0227 38.8206 6.27193 35.0699C2.5212 31.3191 0.414063 26.2321 0.414062 20.9277C0.414063 15.6234 2.5212 10.5363 6.27193 6.7856C10.0227 3.03487 15.1097 0.927734 20.4141 0.927734C25.7184 0.927734 30.8055 3.03487 34.5562 6.7856C38.3069 10.5363 40.4141 15.6234 40.4141 20.9277ZM21.1316 15.6927C19.1866 16.5027 15.2966 18.1777 9.46656 20.7177C8.52156 21.0927 8.02406 21.4627 7.97906 21.8227C7.90406 22.4302 8.66656 22.6702 9.70406 22.9977L10.1416 23.1352C11.1616 23.4677 12.5366 23.8552 13.2491 23.8702C13.8991 23.8852 14.6216 23.6202 15.4191 23.0702C20.8666 19.3927 23.6791 17.5352 23.8541 17.4952C23.9791 17.4652 24.1541 17.4302 24.2691 17.5352C24.3866 17.6377 24.3741 17.8352 24.3616 17.8877C24.2866 18.2102 21.2941 20.9902 19.7466 22.4302C19.2641 22.8802 18.9216 23.1977 18.8516 23.2702C18.6974 23.4278 18.5407 23.5828 18.3816 23.7352C17.4316 24.6502 16.7216 25.3352 18.4191 26.4552C19.2366 26.9952 19.8916 27.4377 20.5441 27.8827C21.2541 28.3677 21.9641 28.8502 22.8841 29.4552C23.1166 29.6052 23.3416 29.7677 23.5591 29.9227C24.3866 30.5127 25.1341 31.0427 26.0516 30.9577C26.5866 30.9077 27.1391 30.4077 27.4191 28.9077C28.0816 25.3652 29.3841 17.6927 29.6841 14.5302C29.7024 14.2673 29.6915 14.0032 29.6516 13.7427C29.628 13.5325 29.5263 13.3389 29.3666 13.2002C29.1391 13.0432 28.8679 12.9619 28.5916 12.9677C27.8416 12.9802 26.6841 13.3827 21.1316 15.6927Z" fill="white"/>
</g>
<defs>
<clipPath id="clip0_256_961">
<rect width="40" height="40" fill="white" transform="translate(0.414062 0.927734)"/>
</clipPath>
</defs>
</svg>
