<svg width="142" height="33" viewBox="0 0 142 33" fill="none" xmlns="http://www.w3.org/2000/svg">
<path fill-rule="evenodd" clip-rule="evenodd" d="M95.9912 6.64335C97.478 2.9237 101.117 0.272461 105.303 0.272461C110.82 0.272461 115.281 4.8231 115.281 10.4026C115.281 15.1488 112.025 19.1506 107.656 20.24V32.3248H102.961V20.2672C102.488 20.1543 102.028 20.0054 101.586 19.8204C100.389 22.8465 97.8234 25.129 94.6639 25.9042V32.3255H89.9688V25.9218C85.5569 24.8717 82.2578 20.8726 82.2578 16.0612C82.2578 10.4817 86.7182 5.93108 92.2742 5.93108C93.6045 5.93108 94.8565 6.1685 95.9912 6.64335ZM86.9921 16.0612C86.9921 19.029 89.3788 21.4428 92.3133 21.4428C94.9739 21.4428 97.165 19.4643 97.5954 16.8526C96.3825 15.4281 95.5999 13.6078 95.3652 11.6293C94.5044 11.0357 93.448 10.6796 92.3133 10.6796C89.3788 10.6796 86.9921 13.0934 86.9921 16.0612ZM99.9821 10.4421C99.9821 13.41 102.369 15.8238 105.303 15.8238C108.238 15.8238 110.625 13.3704 110.625 10.4026C110.625 7.43477 108.238 5.02095 105.303 5.02095C102.369 5.02095 99.9821 7.47434 99.9821 10.4421ZM11.5173 32.5623C9.48276 32.5623 7.68294 32.127 6.07876 31.2565C4.47457 30.3463 3.22252 29.1592 2.28349 27.616C1.38358 26.0331 0.914062 24.292 0.914062 22.3135V6.24775H5.72662V21.9573C5.72662 23.1049 6.0005 24.1733 6.50915 25.0834C7.05692 25.9936 7.7612 26.7058 8.62198 27.2203C9.48276 27.7347 10.4609 28.0512 11.4782 28.0512C12.6129 28.0512 13.6302 27.7742 14.5301 27.2203C15.43 26.6663 16.1343 25.954 16.6429 25.0834C17.1907 24.1733 17.4646 23.1445 17.4646 21.9573V6.24775H22.0815V22.3135C22.0815 24.2524 21.612 26.0331 20.6729 27.5764C19.773 29.1197 18.521 30.3463 16.9168 31.2169C15.3909 32.127 13.5519 32.5623 11.5173 32.5623ZM25.6016 32.3248V6.28726H36.2831C37.7699 6.28726 39.0611 6.6434 40.2349 7.35567C41.4478 8.06794 42.3868 9.05721 43.0911 10.2839C43.7954 11.5106 44.1475 12.8956 44.1475 14.4388C44.1475 15.9821 43.7954 17.4066 43.0911 18.6729C42.3868 19.8996 41.4087 20.8889 40.2349 21.6407C39.0611 22.3926 37.7308 22.7487 36.2831 22.7487H30.4141V32.3248H25.6016ZM30.4141 18.3563H36.0092C36.6352 18.3563 37.183 18.1981 37.6525 17.8419C38.1612 17.4858 38.5524 17.0505 38.8654 16.4569C39.1785 15.903 39.335 15.2303 39.335 14.518C39.335 13.8057 39.1785 13.1726 38.8654 12.6186C38.5524 12.0646 38.1612 11.5897 37.6525 11.2732C37.1439 10.917 36.5961 10.7588 36.0092 10.7588H30.4141V18.3563ZM45.7188 6.28735L53.7397 32.3249H57.2219L63.2641 17.1057L69.5468 32.3249H72.9899L81.05 6.32692H76.0809L71.5422 21.6012C71.4379 22.0233 71.3335 22.3926 71.2408 22.7209C71.1944 22.8851 71.151 23.039 71.1118 23.1841C70.9945 23.5798 70.9162 23.8963 70.8771 24.2129C70.8594 24.3384 70.8336 24.4638 70.8071 24.593C70.7817 24.7167 70.7556 24.8438 70.7352 24.9775C70.6339 24.5253 70.5117 24.0829 70.3684 23.6193C70.2393 23.1752 70.093 22.7482 69.941 22.3044C69.8628 22.076 69.783 21.8432 69.7033 21.6012L65.4776 10.3631H61.4085L57.0654 21.6012C56.9945 21.8642 56.9094 22.1271 56.8185 22.4074L56.8185 22.4075C56.759 22.5913 56.697 22.7826 56.635 22.9862C56.6074 23.0979 56.5776 23.2162 56.5462 23.341L56.5459 23.3423C56.4438 23.7479 56.3242 24.2228 56.2046 24.7669C56.1566 24.9419 56.1085 25.1311 56.0588 25.3342C56.0316 25.1876 56.0022 25.0381 55.9699 24.8856C55.8916 24.3316 55.7743 23.7381 55.6569 23.1841C55.5395 22.6301 55.4221 22.1157 55.2656 21.6408L50.7269 6.28735H45.7188ZM119 32.2457V6.28726H129.329C131.207 6.28726 132.89 6.60383 134.377 7.19739C135.903 7.83052 137.194 8.70108 138.289 9.8882C139.385 11.0358 140.207 12.4207 140.793 14.0036C141.38 15.5864 141.693 17.3671 141.693 19.2665C141.693 21.1659 141.38 22.9861 140.793 24.569C140.246 26.1518 139.424 27.5368 138.328 28.6843C137.233 29.8319 135.942 30.7024 134.416 31.3356C132.89 31.9687 131.207 32.2457 129.329 32.2457H119ZM129.173 27.8533H123.852V10.7588H129.212C130.425 10.7588 131.481 10.9566 132.42 11.3523C133.359 11.748 134.142 12.302 134.807 13.0539C135.472 13.8057 135.981 14.7158 136.333 15.7842C136.685 16.8131 136.842 18.0002 136.842 19.306C136.842 20.6119 136.685 21.799 136.333 22.8674C135.981 23.9358 135.472 24.8064 134.807 25.5582C134.142 26.3101 133.32 26.8641 132.381 27.2598C131.442 27.6555 130.386 27.8533 129.173 27.8533Z" fill="url(#paint0_linear_249_877)"/>
<defs>
<linearGradient id="paint0_linear_249_877" x1="0.914062" y1="0.272461" x2="104.666" y2="80.4666" gradientUnits="userSpaceOnUse">
<stop stop-color="#00AA81"/>
<stop offset="1" stop-color="#0EB400"/>
</linearGradient>
</defs>
</svg>
