<svg width="141" height="33" viewBox="0 0 141 33" fill="none" xmlns="http://www.w3.org/2000/svg">
<path id="Union" fill-rule="evenodd" clip-rule="evenodd" d="M95.1006 7.00859C96.5874 3.28894 100.226 0.637695 104.413 0.637695C109.93 0.637695 114.39 5.18833 114.39 10.7678C114.39 15.5141 111.134 19.5158 106.765 20.6052V32.69H102.07V20.6325C101.597 20.5195 101.138 20.3706 100.696 20.1857C99.4988 23.2118 96.9328 25.4943 93.7733 26.2694V32.6911H89.0781V26.2871C84.6662 25.2369 81.3672 21.2378 81.3672 16.4264C81.3672 10.847 85.8276 6.29631 91.3836 6.29631C92.7139 6.29631 93.9659 6.53374 95.1006 7.00859ZM86.1015 16.4264C86.1015 19.3942 88.4882 21.8081 91.4227 21.8081C94.0833 21.8081 96.2744 19.8295 96.7048 17.2178C95.4919 15.7933 94.7093 13.973 94.4746 11.9945C93.6138 11.4009 92.5574 11.0448 91.4227 11.0448C88.4882 11.0448 86.1015 13.4586 86.1015 16.4264ZM99.0915 10.8074C99.0915 13.7752 101.478 16.189 104.413 16.189C107.347 16.189 109.734 13.7356 109.734 10.7678C109.734 7.8 107.347 5.38619 104.413 5.38619C101.478 5.38619 99.0915 7.83957 99.0915 10.8074ZM10.6267 32.9278C8.59214 32.9278 6.79232 32.4926 5.18813 31.622C3.58395 30.7119 2.3319 29.5248 1.39286 27.9815C0.492955 26.3987 0.0234375 24.6575 0.0234375 22.679V6.61328H4.83599V22.3229C4.83599 23.4704 5.10988 24.5388 5.61852 25.449C6.16629 26.3591 6.87057 27.0714 7.73135 27.5858C8.59214 28.1002 9.5703 28.4168 10.5876 28.4168C11.7223 28.4168 12.7395 28.1398 13.6395 27.5858C14.5394 27.0318 15.2436 26.3195 15.7523 25.449C16.3001 24.5388 16.5739 23.51 16.5739 22.3229V6.61328H21.1909V22.679C21.1909 24.618 20.7213 26.3987 19.7823 27.9419C18.8824 29.4852 17.6304 30.7119 16.0262 31.5824C14.5002 32.4926 12.6613 32.9278 10.6267 32.9278ZM24.7109 32.6901V6.65249H35.3925C36.8793 6.65249 38.1704 7.00863 39.3442 7.7209C40.5572 8.43318 41.4962 9.42245 42.2005 10.6491C42.9048 11.8758 43.2569 13.2608 43.2569 14.8041C43.2569 16.3473 42.9048 17.7719 42.2005 19.0381C41.4962 20.2648 40.518 21.2541 39.3442 22.0059C38.1704 22.7578 36.8401 23.1139 35.3925 23.1139H29.5235V32.6901H24.7109ZM29.5235 18.7216H35.1186C35.7446 18.7216 36.2924 18.5633 36.7619 18.2072C37.2705 17.851 37.6618 17.4157 37.9748 16.8222C38.2878 16.2682 38.4443 15.5955 38.4443 14.8832C38.4443 14.1709 38.2878 13.5378 37.9748 12.9838C37.6618 12.4298 37.2705 11.955 36.7619 11.6384C36.2533 11.2823 35.7055 11.124 35.1186 11.124H29.5235V18.7216ZM44.8281 6.65247L52.8491 32.69H56.3313L62.3735 17.4708L68.6561 32.69H72.0993L80.1593 6.69204H75.1903L70.6516 21.9664C70.5473 22.3884 70.4429 22.7578 70.3502 23.0861C70.3038 23.2502 70.2603 23.4041 70.2212 23.5492C70.1038 23.9449 70.0256 24.2615 69.9865 24.578C69.9687 24.7035 69.943 24.8289 69.9165 24.9581C69.8911 25.0818 69.865 25.2089 69.8446 25.3426C69.7433 24.8904 69.621 24.448 69.4778 23.9845C69.3486 23.5403 69.2024 23.1133 69.0504 22.6695C68.9722 22.4411 68.8924 22.2083 68.8127 21.9664L64.587 10.7283H60.5178L56.1748 21.9664C56.1039 22.2293 56.0187 22.4922 55.9279 22.7725L55.9279 22.7726C55.8683 22.9564 55.8064 23.1477 55.7444 23.3513C55.7168 23.463 55.687 23.5813 55.6556 23.7062L55.6553 23.7074C55.5531 24.113 55.4336 24.5879 55.314 25.132C55.266 25.307 55.2179 25.4963 55.1681 25.6993C55.1409 25.5528 55.1116 25.4032 55.0793 25.2507C55.001 24.6967 54.8836 24.1032 54.7662 23.5492C54.6489 22.9952 54.5315 22.4808 54.375 22.0059L49.8363 6.65247H44.8281ZM118.109 32.6109V6.65249H128.439C130.317 6.65249 131.999 6.96906 133.486 7.56262C135.012 8.19575 136.303 9.06631 137.399 10.2534C138.494 11.401 139.316 12.786 139.903 14.3688C140.49 15.9516 140.803 17.7323 140.803 19.6317C140.803 21.5311 140.49 23.3514 139.903 24.9342C139.355 26.517 138.533 27.902 137.438 29.0495C136.342 30.1971 135.051 31.0677 133.525 31.7008C131.999 32.3339 130.317 32.6109 128.439 32.6109H118.109ZM128.282 28.2186H122.961V11.124H128.321C129.534 11.124 130.591 11.3218 131.53 11.7176C132.469 12.1133 133.251 12.6672 133.916 13.4191C134.582 14.1709 135.09 15.0811 135.442 16.1495C135.795 17.1783 135.951 18.3654 135.951 19.6713C135.951 20.9771 135.795 22.1642 135.442 23.2326C135.09 24.3011 134.582 25.1716 133.916 25.9235C133.251 26.6753 132.43 27.2293 131.491 27.625C130.552 28.0207 129.495 28.2186 128.282 28.2186Z" fill="white"/>
</svg>
