<svg width="320" height="320" viewBox="0 0 320 320" fill="none" xmlns="http://www.w3.org/2000/svg">
<rect width="320" height="320" fill="url(#paint0_linear_256_1280)"/>
<path fill-rule="evenodd" clip-rule="evenodd" d="M205.045 142.561C207.773 135.811 214.451 131 222.135 131C232.26 131 240.446 139.258 240.446 149.383C240.446 157.995 234.471 165.257 226.455 167.234V189.165H217.838V167.284C216.969 167.079 216.125 166.809 215.313 166.473C213.117 171.965 208.407 176.107 202.609 177.513V189.166H193.992V177.545C185.895 175.639 179.84 168.382 179.84 159.651C179.84 149.526 188.026 141.269 198.223 141.269C200.664 141.269 202.962 141.699 205.045 142.561ZM188.529 159.651C188.529 165.037 192.909 169.417 198.295 169.417C203.178 169.417 207.199 165.827 207.989 161.088C205.763 158.502 204.327 155.199 203.896 151.609C202.316 150.532 200.377 149.885 198.295 149.885C192.909 149.885 188.529 154.266 188.529 159.651ZM212.369 149.455C212.369 154.84 216.749 159.221 222.135 159.221C227.521 159.221 231.901 154.768 231.901 149.383C231.901 143.997 227.521 139.617 222.135 139.617C216.749 139.617 212.369 144.069 212.369 149.455ZM50.0146 189.596C46.2806 189.596 42.9775 188.806 40.0333 187.226C37.0892 185.574 34.7914 183.42 33.068 180.62C31.4164 177.747 30.5547 174.588 30.5547 170.997V141.843H39.3871V170.351C39.3871 172.433 39.8897 174.372 40.8232 176.024C41.8285 177.675 43.1211 178.968 44.7009 179.901C46.2806 180.835 48.0758 181.409 49.9428 181.409C52.0253 181.409 53.8923 180.907 55.5439 179.901C57.1954 178.896 58.488 177.604 59.4215 176.024C60.4268 174.372 60.9295 172.505 60.9295 170.351V141.843H69.4028V170.997C69.4028 174.516 68.5411 177.747 66.8177 180.548C65.1661 183.348 62.8683 185.574 59.9241 187.154C57.1236 188.806 53.7487 189.596 50.0146 189.596ZM75.8616 189.164V141.915H95.4652C98.1939 141.915 100.564 142.561 102.718 143.854C104.944 145.146 106.667 146.941 107.96 149.167C109.252 151.393 109.899 153.907 109.899 156.707C109.899 159.508 109.252 162.093 107.96 164.391C106.667 166.617 104.872 168.412 102.718 169.776C100.564 171.141 98.1221 171.787 95.4652 171.787H84.694V189.164H75.8616ZM84.694 163.816H94.9625C96.1114 163.816 97.1167 163.529 97.9784 162.883C98.9119 162.236 99.63 161.447 100.204 160.369C100.779 159.364 101.066 158.143 101.066 156.851C101.066 155.558 100.779 154.409 100.204 153.404C99.63 152.399 98.9119 151.537 97.9784 150.963C97.0449 150.316 96.0396 150.029 94.9625 150.029H84.694V163.816ZM112.773 141.915L127.494 189.164H133.885L144.974 161.546L156.504 189.164H162.823L177.616 141.987H168.496L160.166 169.704C159.975 170.468 159.784 171.137 159.615 171.731L159.614 171.732L159.614 171.734L159.613 171.735L159.613 171.736L159.612 171.739L159.612 171.741L159.611 171.744C159.527 172.039 159.448 172.316 159.376 172.577C159.161 173.295 159.017 173.869 158.946 174.444C158.913 174.671 158.866 174.899 158.817 175.133L158.817 175.134C158.77 175.358 158.723 175.589 158.685 175.831C158.499 175.011 158.275 174.208 158.012 173.367C157.775 172.561 157.507 171.786 157.228 170.981L157.228 170.981C157.084 170.566 156.938 170.144 156.791 169.704L149.036 149.311H141.568L133.597 169.704C133.467 170.181 133.311 170.658 133.145 171.166L133.145 171.166L133.144 171.167L133.144 171.168C133.035 171.501 132.921 171.848 132.807 172.218C132.757 172.421 132.702 172.636 132.644 172.864L132.644 172.864L132.644 172.865C132.456 173.601 132.237 174.462 132.018 175.449C131.929 175.767 131.841 176.11 131.75 176.478C131.7 176.213 131.646 175.941 131.587 175.665C131.443 174.659 131.228 173.582 131.012 172.577C130.797 171.571 130.581 170.638 130.294 169.776L121.964 141.915H112.773ZM247.274 189.021V141.915H266.231C269.678 141.915 272.766 142.489 275.494 143.566C278.295 144.715 280.665 146.295 282.675 148.449C284.686 150.532 286.194 153.045 287.271 155.917C288.348 158.79 288.923 162.021 288.923 165.468C288.923 168.915 288.348 172.218 287.271 175.09C286.266 177.962 284.758 180.476 282.747 182.558C280.736 184.641 278.367 186.22 275.566 187.369C272.766 188.518 269.678 189.021 266.231 189.021H247.274ZM265.944 181.05H256.178V150.029H266.016C268.242 150.029 270.181 150.388 271.904 151.106C273.627 151.824 275.064 152.83 276.284 154.194C277.505 155.558 278.439 157.21 279.085 159.149C279.731 161.016 280.018 163.17 280.018 165.54C280.018 167.909 279.731 170.063 279.085 172.002C278.439 173.941 277.505 175.521 276.284 176.885C275.064 178.25 273.556 179.255 271.832 179.973C270.109 180.691 268.17 181.05 265.944 181.05Z" fill="white"/>
<defs>
<linearGradient id="paint0_linear_256_1280" x1="0" y1="0" x2="365.251" y2="64.7537" gradientUnits="userSpaceOnUse">
<stop stop-color="#00AA81"/>
<stop offset="1" stop-color="#0EB400"/>
</linearGradient>
</defs>
</svg>
